<svg width="25" height="21" viewBox="0 0 25 21" fill="none" xmlns="http://www.w3.org/2000/svg">
<path d="M23.5 17.1595C23.5 17.69 23.2893 18.1987 22.9142 18.5738C22.5391 18.9488 22.0304 19.1595 21.5 19.1595H3.5C2.96957 19.1595 2.46086 18.9488 2.08579 18.5738C1.71071 18.1987 1.5 17.69 1.5 17.1595V6.15955C1.5 5.62911 1.71071 5.1204 2.08579 4.74533C2.46086 4.37026 2.96957 4.15955 3.5 4.15955H7.5L9.5 1.15955H15.5L17.5 4.15955H21.5C22.0304 4.15955 22.5391 4.37026 22.9142 4.74533C23.2893 5.1204 23.5 5.62911 23.5 6.15955V17.1595Z" stroke="black" stroke-width="2" stroke-linecap="round" stroke-linejoin="round"/>
<path d="M12.5 15.1595C14.7091 15.1595 16.5 13.3687 16.5 11.1595C16.5 8.95041 14.7091 7.15955 12.5 7.15955C10.2909 7.15955 8.5 8.95041 8.5 11.1595C8.5 13.3687 10.2909 15.1595 12.5 15.1595Z" stroke="black" stroke-width="2" stroke-linecap="round" stroke-linejoin="round"/>
</svg>
