<svg width="48" height="48" viewBox="0 0 48 48" fill="none" xmlns="http://www.w3.org/2000/svg">
<path fill-rule="evenodd" clip-rule="evenodd" d="M25.3155 45.5065L24 46.6551L22.6845 45.5065C11.6226 35.8474 6 27.4135 6 20C6 9.50133 14.1941 2 24 2C33.8059 2 42 9.50133 42 20C42 27.4135 36.3774 35.8474 25.3155 45.5065Z" fill="url(#paint0_linear_563_7100)"/>
<path d="M19.0318 26.4515H22.9472L19.4836 21.4744C21.1024 20.9364 22.1189 19.6489 22.1189 17.4966C22.1189 14.691 20.3871 13 17.6011 13H13.3594L13.3594 21.7819H15.9258L19.0318 26.4515ZM18.8812 17.5351C18.8812 18.4575 18.3541 18.9186 17.2435 18.9186H13.3594V16.1131H17.2435C18.3164 16.1131 18.8812 16.5935 18.8812 17.5351Z" fill="white"/>
<path d="M29.2603 15.6326C26.0413 15.6326 23.8012 18.0347 23.8012 21.167C23.8012 24.2992 26.0225 26.7013 29.3356 26.7013C31.5757 26.7013 33.7405 25.6059 34.4558 22.9925H31.1615C30.9168 23.7612 30.2015 24.1839 29.3356 24.1839C28.2249 24.1839 27.2084 23.4921 27.0578 21.8587H34.6064C34.9264 18.3806 32.6863 15.6326 29.2603 15.6326ZM29.2415 18.15C30.3897 18.15 31.0674 18.861 31.2745 19.8795H27.152C27.4155 18.861 28.0932 18.15 29.2415 18.15Z" fill="white"/>
<defs>
<linearGradient id="paint0_linear_563_7100" x1="-6.31558" y1="2" x2="50.4144" y2="9.90744" gradientUnits="userSpaceOnUse">
<stop offset="0.0221541" stop-color="#410000"/>
<stop offset="0.339632" stop-color="#FA1300"/>
<stop offset="0.887088" stop-color="#FF9243"/>
<stop offset="1" stop-color="#FF8C6A"/>
</linearGradient>
</defs>
</svg>
