<svg width="32" height="32" viewBox="0 0 32 32" fill="none" xmlns="http://www.w3.org/2000/svg">
<g clip-path="url(#clip0_1790_25535)">
<path d="M21.25 4H10.75C7 4 4 7 4 10.75V15.25V21.25C4 25 7 28 10.75 28H21.25C25 28 28 25 28 21.25V15.25V10.75C28 7 25 4 21.25 4ZM16 11.5C18.475 11.5 20.5 13.525 20.5 16C20.5 18.475 18.475 20.5 16 20.5C13.525 20.5 11.5 18.475 11.5 16C11.5 13.525 13.525 11.5 16 11.5ZM20.5 9.25C20.5 8.425 21.175 7.75 22 7.75C22.825 7.75 23.5 8.425 23.5 9.25C23.5 10.075 22.825 10.75 22 10.75C21.175 10.75 20.5 10.075 20.5 9.25Z" fill="black"/>
</g>
<defs>
<clipPath id="clip0_1790_25535">
<rect width="24" height="24" fill="white" transform="translate(4 4)"/>
</clipPath>
</defs>
</svg>
