<svg width="108" height="42" viewBox="0 0 108 42" fill="none" xmlns="http://www.w3.org/2000/svg">
<path d="M14.2538 29.6908H21.3316L15.0705 20.6939C17.9969 19.7213 19.8344 17.3939 19.8344 13.5034C19.8344 8.43184 16.7038 5.375 11.6677 5.375H4L4 21.2497H8.63916L14.2538 29.6908ZM13.9816 13.5729C13.9816 15.2403 13.0288 16.0739 11.0211 16.0739H4V11.0024H11.0211C12.9607 11.0024 13.9816 11.8708 13.9816 13.5729Z" fill="black"/>
<path d="M32.7436 10.1339C26.9247 10.1339 22.8754 14.4761 22.8754 20.1382C22.8754 25.8003 26.8907 30.1424 32.8797 30.1424C36.929 30.1424 40.8422 28.1624 42.1353 23.4382H36.1804C35.738 24.8276 34.445 25.5918 32.8797 25.5918C30.872 25.5918 29.0345 24.3413 28.7623 21.3887H42.4075C42.986 15.1013 38.9367 10.1339 32.7436 10.1339ZM32.7095 14.6845C34.7852 14.6845 36.0102 15.9697 36.3846 17.8108H28.9324C29.4088 15.9697 30.6338 14.6845 32.7095 14.6845Z" fill="black"/>
<path d="M54.504 30.1424C59.3019 30.1424 63.0791 27.954 63.0791 23.5424C63.0791 19.5824 60.0506 18.4361 54.47 17.1855C52.2241 16.6992 51.6797 16.6297 51.6797 15.9697C51.6797 15.1361 52.5304 14.615 54.2318 14.615C56.0693 14.615 56.8179 15.2403 57.0561 16.1434H62.9089C62.3304 12.4961 59.7443 10.1687 54.47 10.1687C49.0595 10.1687 45.8268 12.6003 45.8268 16.7339C45.8268 20.1034 48.0046 21.5624 53.347 22.7434C56.5457 23.4382 57.1241 23.6118 57.1241 24.3761C57.1241 25.175 56.5116 25.6961 54.572 25.6961C51.8838 25.6961 51.1352 24.6887 50.897 23.6466H45.0442C45.7247 27.6761 49.4338 30.1424 54.504 30.1424Z" fill="black"/>
<path d="M80.8364 23.7161C79.2371 24.2371 78.0121 24.6539 76.9913 24.6539C75.5281 24.6539 74.6093 23.7855 74.6093 21.9445V16.1434H80.9045V10.5855H74.6093V5.375L68.8245 6.66026V10.5855H65.6259V16.1434H68.8245V22.2918C68.8245 27.9887 72.3634 30.1424 75.9704 30.1424C78.3184 30.1424 80.7684 29.2392 81.8233 28.475L80.8364 23.7161Z" fill="black"/>
<path d="M97.8409 10.5855L93.8256 20.555L89.8783 10.5855H83.7193L90.7631 27.0508L85.897 38.375H92.0561L104 10.5855H97.8409Z" fill="black"/>
</svg>
