<svg width="108" height="42" viewBox="0 0 108 42" fill="none" xmlns="http://www.w3.org/2000/svg">
<path d="M14.2538 29.9753H21.3316L15.0705 20.9785C17.9969 20.0059 19.8344 17.6785 19.8344 13.788C19.8344 8.71639 16.7038 5.65955 11.6677 5.65955H4L4 21.5343H8.63916L14.2538 29.9753ZM13.9816 13.8574C13.9816 15.5248 13.0288 16.3585 11.0211 16.3585H4V11.2869H11.0211C12.9607 11.2869 13.9816 12.1553 13.9816 13.8574Z" fill="url(#paint0_linear_4002_928)"/>
<path d="M32.7436 10.4185C26.9247 10.4185 22.8754 14.7606 22.8754 20.4227C22.8754 26.0848 26.8907 30.4269 32.8797 30.4269C36.929 30.4269 40.8422 28.4469 42.1353 23.7227H36.1804C35.738 25.1122 34.445 25.8764 32.8797 25.8764C30.872 25.8764 29.0345 24.6259 28.7623 21.6732H42.4075C42.986 15.3859 38.9367 10.4185 32.7436 10.4185ZM32.7095 14.969C34.7852 14.969 36.0102 16.2543 36.3846 18.0953H28.9324C29.4088 16.2543 30.6338 14.969 32.7095 14.969Z" fill="url(#paint1_linear_4002_928)"/>
<path d="M54.504 30.4269C59.3019 30.4269 63.0791 28.2385 63.0791 23.8269C63.0791 19.8669 60.0506 18.7206 54.47 17.4701C52.2241 16.9838 51.6797 16.9143 51.6797 16.2543C51.6797 15.4206 52.5304 14.8995 54.2318 14.8995C56.0693 14.8995 56.8179 15.5248 57.0561 16.428H62.9089C62.3304 12.7806 59.7443 10.4532 54.47 10.4532C49.0595 10.4532 45.8268 12.8848 45.8268 17.0185C45.8268 20.388 48.0046 21.8469 53.347 23.028C56.5457 23.7227 57.1241 23.8964 57.1241 24.6606C57.1241 25.4595 56.5116 25.9806 54.572 25.9806C51.8838 25.9806 51.1352 24.9732 50.897 23.9311H45.0442C45.7247 27.9606 49.4338 30.4269 54.504 30.4269Z" fill="url(#paint2_linear_4002_928)"/>
<path d="M80.8364 24.0006C79.2371 24.5217 78.0121 24.9385 76.9913 24.9385C75.5281 24.9385 74.6093 24.0701 74.6093 22.229V16.428H80.9045V10.8701H74.6093V5.65955L68.8245 6.94481V10.8701H65.6259V16.428H68.8245V22.5764C68.8245 28.2732 72.3634 30.4269 75.9704 30.4269C78.3184 30.4269 80.7684 29.5238 81.8233 28.7595L80.8364 24.0006Z" fill="url(#paint3_linear_4002_928)"/>
<path d="M97.8409 10.8701L93.8256 20.8395L89.8783 10.8701H83.7193L90.7631 27.3353L85.897 38.6595H92.0561L104 10.8701H97.8409Z" fill="url(#paint4_linear_4002_928)"/>
<defs>
<linearGradient id="paint0_linear_4002_928" x1="-30.2099" y1="5.65955" x2="95.8346" y2="71.6988" gradientUnits="userSpaceOnUse">
<stop offset="0.0221541" stop-color="#410000"/>
<stop offset="0.339632" stop-color="#FA1300"/>
<stop offset="0.887088" stop-color="#FF9243"/>
<stop offset="1" stop-color="#FF8C6A"/>
</linearGradient>
<linearGradient id="paint1_linear_4002_928" x1="-30.2099" y1="5.65955" x2="95.8346" y2="71.6988" gradientUnits="userSpaceOnUse">
<stop offset="0.0221541" stop-color="#410000"/>
<stop offset="0.339632" stop-color="#FA1300"/>
<stop offset="0.887088" stop-color="#FF9243"/>
<stop offset="1" stop-color="#FF8C6A"/>
</linearGradient>
<linearGradient id="paint2_linear_4002_928" x1="-30.2099" y1="5.65955" x2="95.8346" y2="71.6988" gradientUnits="userSpaceOnUse">
<stop offset="0.0221541" stop-color="#410000"/>
<stop offset="0.339632" stop-color="#FA1300"/>
<stop offset="0.887088" stop-color="#FF9243"/>
<stop offset="1" stop-color="#FF8C6A"/>
</linearGradient>
<linearGradient id="paint3_linear_4002_928" x1="-30.2099" y1="5.65955" x2="95.8346" y2="71.6988" gradientUnits="userSpaceOnUse">
<stop offset="0.0221541" stop-color="#410000"/>
<stop offset="0.339632" stop-color="#FA1300"/>
<stop offset="0.887088" stop-color="#FF9243"/>
<stop offset="1" stop-color="#FF8C6A"/>
</linearGradient>
<linearGradient id="paint4_linear_4002_928" x1="-30.2099" y1="5.65955" x2="95.8346" y2="71.6988" gradientUnits="userSpaceOnUse">
<stop offset="0.0221541" stop-color="#410000"/>
<stop offset="0.339632" stop-color="#FA1300"/>
<stop offset="0.887088" stop-color="#FF9243"/>
<stop offset="1" stop-color="#FF8C6A"/>
</linearGradient>
</defs>
</svg>
