<svg width="124" height="36" viewBox="0 0 124 36" fill="none" xmlns="http://www.w3.org/2000/svg">
<path d="M11.1054 26.5658H18.1832L11.922 17.5689C14.8485 16.5963 16.686 14.2689 16.686 10.3784C16.686 5.30684 13.5554 2.25 8.51923 2.25H0.851564L0.851562 18.1247H5.49073L11.1054 26.5658ZM10.8331 10.4479C10.8331 12.1153 9.88035 12.9489 7.87269 12.9489H0.851562V7.87737H7.87269C9.8123 7.87737 10.8331 8.74579 10.8331 10.4479Z" fill="url(#paint0_linear_1262_16138)"/>
<path d="M29.5951 7.00895C23.7763 7.00895 19.727 11.3511 19.727 17.0132C19.727 22.6753 23.7423 27.0174 29.7312 27.0174C33.7806 27.0174 37.6938 25.0374 38.9869 20.3132H33.0319C32.5896 21.7026 31.2965 22.4668 29.7312 22.4668C27.7236 22.4668 25.886 21.2163 25.6138 18.2637H39.2591C39.8376 11.9763 35.7882 7.00895 29.5951 7.00895ZM29.5611 11.5595C31.6368 11.5595 32.8618 12.8447 33.2361 14.6858H25.784C26.2604 12.8447 27.4854 11.5595 29.5611 11.5595Z" fill="url(#paint1_linear_1262_16138)"/>
<path d="M51.3555 27.0174C56.1535 27.0174 59.9306 24.829 59.9306 20.4174C59.9306 16.4574 56.9021 15.3111 51.3215 14.0605C49.0757 13.5742 48.5312 13.5047 48.5312 12.8447C48.5312 12.0111 49.3819 11.49 51.0833 11.49C52.9208 11.49 53.6695 12.1153 53.9077 13.0184H59.7605C59.182 9.37105 56.5959 7.04368 51.3215 7.04368C45.9111 7.04368 42.6784 9.47526 42.6784 13.6089C42.6784 16.9784 44.8562 18.4374 50.1986 19.6184C53.3972 20.3132 53.9757 20.4868 53.9757 21.2511C53.9757 22.05 53.3632 22.5711 51.4236 22.5711C48.7354 22.5711 47.9868 21.5637 47.7486 20.5216H41.8957C42.5763 24.5511 46.2854 27.0174 51.3555 27.0174Z" fill="url(#paint2_linear_1262_16138)"/>
<path d="M77.688 20.5911C76.0887 21.1121 74.8637 21.5289 73.8428 21.5289C72.3796 21.5289 71.4609 20.6605 71.4609 18.8195V13.0184H77.7561V7.46053H71.4609V2.25L65.6761 3.53526V7.46053H62.4774V13.0184H65.6761V19.1668C65.6761 24.8637 69.215 27.0174 72.822 27.0174C75.1699 27.0174 77.6199 26.1142 78.6748 25.35L77.688 20.5911Z" fill="url(#paint3_linear_1262_16138)"/>
<path d="M94.6925 7.46053L90.6772 17.43L86.7299 7.46053H80.5708L87.6146 23.9258L82.7486 35.25H88.9077L100.852 7.46053H94.6925Z" fill="url(#paint4_linear_1262_16138)"/>
<path d="M109.746 8.19757C111.888 8.19757 113.608 10.0269 113.608 12.7004C113.608 15.3583 111.919 17.2033 109.73 17.2033C108.636 17.2033 107.854 16.7498 107.291 16.0775V17H104.633V4.96115H107.291V9.37019C107.838 8.66662 108.651 8.19757 109.746 8.19757ZM109.105 14.6704C110.121 14.6704 110.919 13.9043 110.919 12.7004C110.919 11.5122 110.137 10.7304 109.105 10.7304C108.073 10.7304 107.291 11.5122 107.291 12.7004C107.291 13.9043 108.073 14.6704 109.105 14.6704ZM120.562 8.40083H123.392L117.904 20.9087H115.074L117.31 15.8118L114.073 8.40083H116.903L118.717 12.888L120.562 8.40083Z" fill="#BDBDBD"/>
<defs>
<linearGradient id="paint0_linear_1262_16138" x1="-33.3584" y1="2.25" x2="92.6862" y2="68.2893" gradientUnits="userSpaceOnUse">
<stop offset="0.0221541" stop-color="#410000"/>
<stop offset="0.339632" stop-color="#FA1300"/>
<stop offset="0.887088" stop-color="#FF9243"/>
<stop offset="1" stop-color="#FF8C6A"/>
</linearGradient>
<linearGradient id="paint1_linear_1262_16138" x1="-33.3584" y1="2.25" x2="92.6862" y2="68.2893" gradientUnits="userSpaceOnUse">
<stop offset="0.0221541" stop-color="#410000"/>
<stop offset="0.339632" stop-color="#FA1300"/>
<stop offset="0.887088" stop-color="#FF9243"/>
<stop offset="1" stop-color="#FF8C6A"/>
</linearGradient>
<linearGradient id="paint2_linear_1262_16138" x1="-33.3584" y1="2.25" x2="92.6862" y2="68.2893" gradientUnits="userSpaceOnUse">
<stop offset="0.0221541" stop-color="#410000"/>
<stop offset="0.339632" stop-color="#FA1300"/>
<stop offset="0.887088" stop-color="#FF9243"/>
<stop offset="1" stop-color="#FF8C6A"/>
</linearGradient>
<linearGradient id="paint3_linear_1262_16138" x1="-33.3584" y1="2.25" x2="92.6862" y2="68.2893" gradientUnits="userSpaceOnUse">
<stop offset="0.0221541" stop-color="#410000"/>
<stop offset="0.339632" stop-color="#FA1300"/>
<stop offset="0.887088" stop-color="#FF9243"/>
<stop offset="1" stop-color="#FF8C6A"/>
</linearGradient>
<linearGradient id="paint4_linear_1262_16138" x1="-33.3584" y1="2.25" x2="92.6862" y2="68.2893" gradientUnits="userSpaceOnUse">
<stop offset="0.0221541" stop-color="#410000"/>
<stop offset="0.339632" stop-color="#FA1300"/>
<stop offset="0.887088" stop-color="#FF9243"/>
<stop offset="1" stop-color="#FF8C6A"/>
</linearGradient>
</defs>
</svg>
