<svg width="24" height="25" viewBox="0 0 24 25" fill="none" xmlns="http://www.w3.org/2000/svg">
<g clip-path="url(#clip0_35_2269)">
<path d="M1 1.83984H5L7.68 15.2298C7.77144 15.6902 8.02191 16.1038 8.38755 16.3981C8.75318 16.6925 9.2107 16.8488 9.68 16.8398H19.4C19.8693 16.8488 20.3268 16.6925 20.6925 16.3981C21.0581 16.1038 21.3086 15.6902 21.4 15.2298L23 6.83984H6M10 21.8398C10 22.3921 9.55228 22.8398 9 22.8398C8.44772 22.8398 8 22.3921 8 21.8398C8 21.2876 8.44772 20.8398 9 20.8398C9.55228 20.8398 10 21.2876 10 21.8398ZM21 21.8398C21 22.3921 20.5523 22.8398 20 22.8398C19.4477 22.8398 19 22.3921 19 21.8398C19 21.2876 19.4477 20.8398 20 20.8398C20.5523 20.8398 21 21.2876 21 21.8398Z" stroke="black" stroke-width="2" stroke-linecap="round" stroke-linejoin="round"/>
</g>
<defs>
<clipPath id="clip0_35_2269">
<rect width="24" height="24" fill="white" transform="translate(0 0.839844)"/>
</clipPath>
</defs>
</svg>
