<svg width="32" height="32" viewBox="0 0 32 32" fill="none" xmlns="http://www.w3.org/2000/svg">
<g clip-path="url(#clip0_1790_25543)">
<path fill-rule="evenodd" clip-rule="evenodd" d="M28 16C28 22.6274 22.6274 28 16 28C9.37258 28 4 22.6274 4 16C4 9.37258 9.37258 4 16 4C22.6274 4 28 9.37258 28 16ZM16.4302 12.859C15.263 13.3445 12.9303 14.3493 9.43207 15.8734C8.86401 16.0993 8.56643 16.3203 8.53934 16.5364C8.49356 16.9016 8.95089 17.0454 9.57365 17.2412C9.65836 17.2679 9.74613 17.2955 9.83611 17.3247C10.4488 17.5239 11.273 17.7569 11.7015 17.7661C12.0901 17.7745 12.5239 17.6143 13.0028 17.2854C16.2713 15.0791 17.9586 13.9639 18.0645 13.9399C18.1392 13.9229 18.2428 13.9016 18.3129 13.9639C18.3831 14.0263 18.3762 14.1444 18.3688 14.1761C18.3235 14.3692 16.5283 16.0382 15.5993 16.9019C15.3097 17.1711 15.1042 17.3621 15.0623 17.4057C14.9682 17.5035 14.8723 17.5959 14.7802 17.6847C14.2109 18.2334 13.7841 18.6449 14.8038 19.3169C15.2938 19.6398 15.6859 19.9068 16.0771 20.1732C16.5043 20.4642 16.9305 20.7544 17.4818 21.1158C17.6222 21.2078 17.7564 21.3035 17.8871 21.3966C18.3842 21.7511 18.8309 22.0695 19.3828 22.0187C19.7034 21.9892 20.0346 21.6877 20.2028 20.7885C20.6004 18.6632 21.3818 14.0586 21.5624 12.1611C21.5782 11.9948 21.5583 11.7821 21.5423 11.6887C21.5263 11.5953 21.4929 11.4622 21.3715 11.3637C21.2278 11.247 21.0058 11.2224 20.9065 11.2242C20.4552 11.2321 19.7627 11.4729 16.4302 12.859Z" fill="black"/>
</g>
<defs>
<clipPath id="clip0_1790_25543">
<rect width="24" height="24" fill="white" transform="translate(4 4)"/>
</clipPath>
</defs>
</svg>
