<svg width="32" height="32" viewBox="0 0 32 32" fill="none" xmlns="http://www.w3.org/2000/svg">
<g clip-path="url(#clip0_1790_25538)">
<path fill-rule="evenodd" clip-rule="evenodd" d="M21.25 4H10.75C7 4 4 7 4 10.75V15.25V21.25C4 25 7 28 10.75 28H21.25C25 28 28 25 28 21.25V15.25V10.75C28 7 25 4 21.25 4ZM20.5685 11.1919C21.2417 11.7019 22.0831 12.0055 22.9931 12.0055C22.9931 12.0055 22.9977 12.0055 22.9994 12.0044V12.7064V14.6028C22.1112 14.6028 21.2448 14.4306 20.4283 14.0833C19.9016 13.8611 19.4123 13.5764 18.9666 13.229L18.9791 19.0682C18.9728 20.3825 18.4555 21.6186 17.5174 22.548C16.7539 23.3053 15.7878 23.7872 14.7406 23.9436C14.4944 23.9812 14.242 24 13.9896 24C12.8676 24 11.8018 23.6338 10.9323 22.961C10.7671 22.8327 10.6113 22.695 10.4617 22.548C9.4457 21.5403 8.92213 20.1729 9.00939 18.7365C9.07796 17.6413 9.51427 16.5961 10.2404 15.7794C11.2034 14.6966 12.5497 14.0958 13.9896 14.0958C14.2451 14.0958 14.4944 14.1146 14.7406 14.1521V14.85V16.7995C14.5069 16.7244 14.2576 16.6806 13.9989 16.6806C12.6837 16.6806 11.621 17.7602 11.6397 19.0807C11.6522 19.9288 12.1103 20.6673 12.7897 21.0741C13.1107 21.265 13.4753 21.3839 13.868 21.4058C14.1734 21.4246 14.4664 21.3808 14.7406 21.29C15.6787 20.9771 16.3581 20.0915 16.3581 19.0463L16.3612 15.1379V8H18.9635C18.9666 8.25973 18.9915 8.5132 19.0414 8.75728C19.2377 9.74613 19.7956 10.6067 20.5685 11.1919ZM22.9994 12.0023C23.0003 12.0033 23.0001 12.0039 22.9994 12.0044V12.0023Z" fill="black"/>
</g>
<defs>
<clipPath id="clip0_1790_25538">
<rect width="24" height="24" fill="white" transform="translate(4 4)"/>
</clipPath>
</defs>
</svg>
